<svg width="32" height="32" viewBox="0 0 32 32" fill="none" xmlns="http://www.w3.org/2000/svg">
  <rect width="32" height="32" rx="6" fill="#0A0A0A"/>
  <!-- Bodoni-inspired B -->
  <path d="M9 8H14.5C18 8 19.5 9.5 19.5 12C19.5 13.5 18.5 15 16.5 15.5C18.5 16 20 17.5 20 20C20 22.5 18 24 14.5 24H9V8Z" fill="#FAFAF7"/>
  <path d="M11 10V22H14.5C17 22 17.5 20.5 17.5 20C17.5 19.5 17 17.5 14.5 17.5H11V14.5H14C16.5 14.5 17 12.5 17 12C17 11.5 16.5 10 14 10H11Z" fill="#0A0A0A"/>
  <!-- Vertical accent cursor -->
  <rect x="23" y="9" width="2" height="14" fill="#E63322"/>
</svg>
